<?xml version="1.0" encoding="UTF-8"?>
<svg version="1.1" xmlns="http://www.w3.org/2000/svg" width="140" height="140">
<path d="M0 0 C46.2 0 92.4 0 140 0 C140 46.2 140 92.4 140 140 C93.8 140 47.6 140 0 140 C0 93.8 0 47.6 0 0 Z " fill="#F0EFEF" transform="translate(0,0)"/>
<path d="M0 0 C46.2 0 92.4 0 140 0 C140 46.2 140 92.4 140 140 C93.8 140 47.6 140 0 140 C0 93.8 0 47.6 0 0 Z M34 26 C33.36449219 26.47179688 32.72898437 26.94359375 32.07421875 27.4296875 C22.42888894 35.00052287 15.54986689 47.52739434 13.35546875 59.5234375 C11.49723518 77.69737024 14.6762828 92.28995665 26.13671875 106.68359375 C30.84440735 112.21286849 35.69802916 116.40696986 42 120 C42.63421875 120.37769531 43.2684375 120.75539063 43.921875 121.14453125 C55.27032916 127.40493881 68.95023197 128.84770236 81.55859375 126.2734375 C84.79147577 125.33670137 87.87736974 124.25400211 91 123 C91.88300781 122.649375 92.76601562 122.29875 93.67578125 121.9375 C100.54752026 118.85964489 105.70517276 114.28563483 111 109 C111.5775 108.43410156 112.155 107.86820312 112.75 107.28515625 C122.18272092 97.23832589 126.59538361 83.16414617 126.4375 69.625 C126.42992676 68.7074292 126.42235352 67.7898584 126.41455078 66.84448242 C126.02434932 50.73087086 118.44203349 38.03338943 107 27 C93.12997742 15.11801399 77.21572368 13.06420336 59.65039062 13.77783203 C49.74778597 14.60791404 41.62912392 19.97771811 34 26 Z " fill="#FEFEFE" transform="translate(0,0)"/>
<path d="M0 0 C6.69958579 3.11911853 11.39239968 7.10846959 14.234375 14.08984375 C15.03019394 21.08564747 14.98397429 27.32794382 11.20703125 33.40625 C10.12876047 35.27265445 9.67121181 36.98842878 9.234375 39.08984375 C10.98118793 40.07468483 12.7319601 41.05250562 14.484375 42.02734375 C15.94617188 42.84525391 15.94617188 42.84525391 17.4375 43.6796875 C24.65013289 47.31622447 33.22394488 47.3218341 40.87109375 44.97265625 C43.11525715 44.08303269 45.34513915 43.15601112 47.5546875 42.18359375 C50.234375 41.08984375 50.234375 41.08984375 53.234375 41.08984375 C48.95461197 46.10029802 44.54777801 49.31923856 38.796875 52.40234375 C37.86669556 52.90797852 37.86669556 52.90797852 36.91772461 53.42382812 C25.85823475 59.15098647 13.47828315 59.85819071 1.484375 56.52734375 C-7.95587455 53.23369403 -16.39895275 47.8502154 -22.765625 40.08984375 C-23.34570312 39.39632812 -23.92578125 38.7028125 -24.5234375 37.98828125 C-29.86396105 30.56122757 -29.84073032 22.83091741 -28.765625 14.08984375 C-26.97941586 7.74932357 -21.35436389 3.24604078 -15.8671875 -0.05078125 C-10.82540502 -2.11247669 -5.09582691 -1.67701648 0 0 Z " fill="#09090A" transform="translate(53.765625,61.91015625)"/>
<path d="M0 0 C13.4437551 2.38518236 23.40882332 8.71716876 31.75 19.5625 C39.29017376 31.03973418 41.77903146 43.81534338 39.41796875 57.33203125 C37.31677683 66.44468713 34.2766226 72.98425355 27 79 C21.03405349 82.62635964 14.80436127 82.95134212 8 82 C1.57033787 79.58485145 -3.93755623 74.12488755 -7 68 C-7.67127429 60.69269991 -8.20860233 53.76285738 -3.6328125 47.68359375 C0.75869986 43.15550325 5.3935476 39.12069787 11.91796875 38.90234375 C13.53638672 38.91974609 13.53638672 38.91974609 15.1875 38.9375 C16.81751953 38.95103516 16.81751953 38.95103516 18.48046875 38.96484375 C19.31191406 38.97644531 20.14335938 38.98804688 21 39 C20.63507537 26.33711546 19.01234902 17.36931804 10.171875 7.98046875 C7.47297151 5.51941827 4.65753673 3.64109727 1.46875 1.875 C0.74171875 1.441875 0.74171875 1.441875 0 1 C0 0.67 0 0.34 0 0 Z " fill="#070707" transform="translate(79,22)"/>
<path d="M0 0 C5.16820084 3.60156336 9.27272194 7.99349125 11.375 14 C11.41625 14.825 11.4575 15.65 11.5 16.5 C11.62375 17.716875 11.7475 18.93375 11.875 20.1875 C11.7616447 25.63885945 9.67344943 30.13012366 6.5 34.5 C0.20106178 39.96055064 -5.38722922 41.88242442 -13.6484375 41.7734375 C-19.7177745 41.19144628 -23.82720668 38.51775423 -27.9375 34.125 C-30.39561138 31.04070307 -31.30477275 28.5021586 -31.5 24.5 C-41.00857609 28.06571603 -47.79727585 33.35907994 -52.5 42.5 C-54.6643123 48.02914157 -55.85997168 53.61173946 -56.5 59.5 C-60.89815613 52.90276581 -59.53650144 40.9764967 -58.09716797 33.37158203 C-56.14084773 26.16953688 -52.43178525 20.0231264 -47.5 14.5 C-46.97277344 13.84644531 -46.44554687 13.19289063 -45.90234375 12.51953125 C-35.64941072 0.86949526 -14.59176071 -8.18291748 0 0 Z " fill="#0A090A" transform="translate(79.5,23.5)"/>
<path d="M0 0 C13.86158429 9.08172764 24.20628167 21.85803069 27.75 38.3125 C29.13686646 55.35852351 26.96428269 70.16382694 16.75 84.3125 C6.97605865 95.76540061 -5.12694368 103.97043376 -20.25 106.3125 C-36.82549675 107.25655896 -51.98149564 104.58729961 -65.00610352 93.52050781 C-76.83814663 82.91157315 -84.34390271 68.7370159 -85.5078125 52.77734375 C-85.74356451 37.30190795 -81.54583724 23.4567457 -71.5625 11.375 C-52.51875833 -8.07788456 -24.19519657 -13.4044376 0 0 Z M-68 15.18359375 C-78.48633566 28.3188215 -81.24559971 41.7498021 -80.04296875 58.1328125 C-78.34099548 70.96307257 -70.63615369 81.75660578 -61.25 90.3125 C-48.55230642 99.79133813 -34.62339995 102.96127823 -19.0546875 100.88671875 C-4.20839832 97.66012523 7.85418567 89.20529084 16.125 76.5 C22.95274062 63.96954421 25.34650908 49.35964846 21.90234375 35.37109375 C17.29697464 21.14908949 7.8869854 9.79999868 -5.375 2.9375 C-13.04245316 -0.78194205 -19.76602289 -2.01331225 -28.1875 -1.9375 C-29.47043945 -1.94910156 -29.47043945 -1.94910156 -30.77929688 -1.9609375 C-45.48954218 -1.91605498 -57.97975463 4.46998318 -68 15.18359375 Z " fill="#EA2831" transform="translate(98.25,20.6875)"/>
<path d="M0 0 C10.75278757 8.46328067 17.9996968 18.7827844 21.125 32.25 C21.43915979 35.29714003 21.50588788 38.3129903 21.5 41.375 C21.49867065 42.62035522 21.49867065 42.62035522 21.49731445 43.89086914 C21.33382096 52.48133169 20.01964396 61.58845083 14.125 68.25 C11.4375 69.5 11.4375 69.5 9.125 70.25 C9.7025 69.651875 10.28 69.05375 10.875 68.4375 C17.8835876 58.50866757 19.14361686 46.07793932 18.125 34.25 C15.44585198 21.45543456 9.13519439 9.87046844 -1.90625 2.421875 C-7.40548301 -0.85147798 -12.65957078 -3.1961427 -18.875 -4.75 C-17.885 -3.76 -16.895 -2.77 -15.875 -1.75 C-18.46699437 -2.24846046 -20.27015942 -2.96934457 -22.60546875 -4.265625 C-29.74129809 -7.50530857 -38.32537983 -6.60666319 -45.625 -4.125 C-59.37108812 1.65964412 -69.84912557 10.20557954 -75.66625977 24.14624023 C-77.98860319 30.28517981 -78.23928623 35.79860735 -78.0625 42.3125 C-78.04896484 43.27349609 -78.03542969 44.23449219 -78.02148438 45.22460938 C-77.98652848 47.56665439 -77.93273794 49.90840586 -77.875 52.25 C-77.215 49.28 -76.555 46.31 -75.875 43.25 C-73.90736176 47.18527647 -73.77602463 48.89761831 -74.00634766 53.13867188 C-74.46015116 61.69184071 -73.79229372 67.61794407 -67.875 74.25 C-57.24077312 85.25092436 -45.72474434 91.35858973 -30.125 91.6875 C-20.10222602 91.36947954 -13.20736408 88.09701927 -4.4765625 83.359375 C-1.875 82.25 -1.875 82.25 1.125 83.25 C-9.41624196 92.73711776 -21.52795819 94.730572 -35.265625 94.49609375 C-48.90614742 93.56605813 -60.66491269 86.02661289 -69.875 76.25 C-72.14526815 73.37920931 -74.06178906 70.42597011 -75.875 67.25 C-76.26429687 66.60417969 -76.65359375 65.95835938 -77.0546875 65.29296875 C-83.49048352 53.76021018 -83.48346859 38.68009727 -79.98046875 26.23046875 C-74.46976686 11.37299333 -64.54210412 1.49254648 -50.7578125 -5.8828125 C-34.79482166 -13.19031497 -13.96469371 -9.55177408 0 0 Z " fill="#F2E8E8" transform="translate(99.875,27.75)"/>
<path d="M0 0 C0.99 0 1.98 0 3 0 C3 0.99 3 1.98 3 3 C4.32 3 5.64 3 7 3 C7 3.66 7 4.32 7 5 C5.35 4.67 3.7 4.34 2 4 C2 4.66 2 5.32 2 6 C2.66 6.33 3.32 6.66 4 7 C4 7.99 4 8.98 4 10 C4.66 10 5.32 10 6 10 C6.24105469 9.36707031 6.48210937 8.73414062 6.73046875 8.08203125 C8 6 8 6 9.98828125 5.13671875 C18.15526802 3.55822551 18.15526802 3.55822551 22 5 C22.33 5.66 22.66 6.32 23 7 C22.38125 7.185625 21.7625 7.37125 21.125 7.5625 C17.94397134 9.71437233 17.80548053 12.37533763 17 16 C15.02 16.33 13.04 16.66 11 17 C11 17.66 11 18.32 11 19 C14.96 18.505 14.96 18.505 19 18 C18.67 20.31 18.34 22.62 18 25 C15.69 25 13.38 25 11 25 C11 25.99 11 26.98 11 28 C10.34 28 9.68 28 9 28 C9 22.72 9 17.44 9 12 C8.01 12.495 8.01 12.495 7 13 C6.34444881 15.52733235 6.34444881 15.52733235 6 18 C5.01 17.67 4.02 17.34 3 17 C3.33 15.35 3.66 13.7 4 12 C3.34 11.67 2.68 11.34 2 11 C2.33 10.34 2.66 9.68 3 9 C-0.11785113 9.64644661 -0.11785113 9.64644661 -1 12 C-0.34 12 0.32 12 1 12 C1 12.66 1 13.32 1 14 C1.66 14.33 2.32 14.66 3 15 C2.01 15.33 1.02 15.66 0 16 C0.33 16.99 0.66 17.98 1 19 C0.5625 21.1875 0.5625 21.1875 0 23 C1.98491642 22.73323796 1.98491642 22.73323796 4 22 C4.33 21.01 4.66 20.02 5 19 C7 21 7 21 7 24 C6.071875 24.12375 5.14375 24.2475 4.1875 24.375 C0.86074765 24.81533082 0.86074765 24.81533082 -2 27 C-2.33 26.01 -2.66 25.02 -3 24 C-2.67 23.34 -2.34 22.68 -2 22 C-1.77532169 20.46331135 -1.59203195 18.92031946 -1.4375 17.375 C-1.35371094 16.55773437 -1.26992187 15.74046875 -1.18359375 14.8984375 C-1.12300781 14.27195312 -1.06242187 13.64546875 -1 13 C-2.65 14.65 -4.3 16.3 -6 18 C-6.66 17.67 -7.32 17.34 -8 17 C-7.59007813 16.443125 -7.18015625 15.88625 -6.7578125 15.3125 C-3.16876468 10.22944663 -1.11387899 6.12633446 0 0 Z " fill="#BEBEBF" transform="translate(86,68)"/>
<path d="M0 0 C6.78536278 2.26572114 10.7755083 7.31316836 14.40234375 13.32421875 C17.67402561 20.3682313 17.3960129 27.36575138 17 35 C16.20335938 35.06058594 15.40671875 35.12117188 14.5859375 35.18359375 C6.75667303 35.79667866 6.75667303 35.79667866 -1 37 C-0.59007813 36.33613281 -0.18015625 35.67226563 0.2421875 34.98828125 C0.78101562 34.10527344 1.31984375 33.22226562 1.875 32.3125 C2.40867187 31.44238281 2.94234375 30.57226562 3.4921875 29.67578125 C7.18582495 23.12101013 7.72394386 17.75134545 6.3125 10.4375 C4.73978223 6.31847728 2.69599566 3.47641545 0 0 Z " fill="#F5F5F5" transform="translate(83,26)"/>
<path d="M0 0 C0.33 0 0.66 0 1 0 C1.33 5.61 1.66 11.22 2 17 C2.66 14.03 3.32 11.06 4 8 C5.96763824 11.93527647 6.09897537 13.64761831 5.86865234 17.88867188 C5.41484884 26.44184071 6.08270628 32.36794407 12 39 C22.63422688 50.00092436 34.15025566 56.10858973 49.75 56.4375 C59.77277398 56.11947954 66.66763592 52.84701927 75.3984375 48.109375 C78 47 78 47 81 48 C70.45875804 57.48711776 58.34704181 59.480572 44.609375 59.24609375 C30.96885258 58.31605813 19.21008731 50.77661289 10 41 C7.72970017 38.12916924 5.81263277 35.17636903 4 32 C3.59910156 31.33097656 3.19820312 30.66195312 2.78515625 29.97265625 C-2.48227376 20.50627848 -0.89151892 10.41019788 0 0 Z " fill="#EFE3E4" transform="translate(20,63)"/>
<path d="M0 0 C0.99 0 1.98 0 3 0 C2.34 1.32 1.68 2.64 1 4 C2.32 4.66 3.64 5.32 5 6 C4.1875 8.9375 4.1875 8.9375 3 12 C2.01 12.33 1.02 12.66 0 13 C0 13.66 0 14.32 0 15 C0.78375 14.95875 1.5675 14.9175 2.375 14.875 C5 15 5 15 7 17 C7.33 15.35 7.66 13.7 8 12 C6.35 12.66 4.7 13.32 3 14 C3.20496094 13.46890625 3.40992188 12.9378125 3.62109375 12.390625 C3.89050781 11.68421875 4.15992187 10.9778125 4.4375 10.25 C4.70433594 9.55390625 4.97117187 8.8578125 5.24609375 8.140625 C5.96146693 6.10940997 6.51365652 4.0964709 7 2 C7.99 2 8.98 2 10 2 C9.47731534 4.76276177 8.89130413 7.3260876 8 10 C9.98 10 11.96 10 14 10 C12.02 10.99 12.02 10.99 10 12 C10.07018127 15.40060156 10.23921271 18.67825267 11 22 C13.38987933 24.1386077 13.38987933 24.1386077 16 25 C16 25.33 16 25.66 16 26 C13.625 26.1875 13.625 26.1875 11 26 C10.34 25.01 9.68 24.02 9 23 C7.35 23.33 5.7 23.66 4 24 C4.66 22.35 5.32 20.7 6 19 C5.01 19 4.02 19 3 19 C2.731875 20.134375 2.46375 21.26875 2.1875 22.4375 C1.795625 23.613125 1.40375 24.78875 1 26 C0.01 26.33 -0.98 26.66 -2 27 C-2.33 26.01 -2.66 25.02 -3 24 C-2.01 24 -1.02 24 0 24 C0 22.68 0 21.36 0 20 C-1.98 21.65 -3.96 23.3 -6 25 C-6.66 24.67 -7.32 24.34 -8 24 C-7.67 23.67 -7.34 23.34 -7 23 C-7.66 22.67 -8.32 22.34 -9 22 C-9 23.32 -9 24.64 -9 26 C-9.66 26 -10.32 26 -11 26 C-11.75 23.875 -11.75 23.875 -12 21 C-10.375 17.6875 -10.375 17.6875 -8 15 C-5.25 14.625 -5.25 14.625 -3 15 C-2.67 14.34 -2.34 13.68 -2 13 C-2.66 13 -3.32 13 -4 13 C-4.33 10.69 -4.66 8.38 -5 6 C-4.01 6 -3.02 6 -2 6 C-1.34 4.02 -0.68 2.04 0 0 Z " fill="#A1A0A1" transform="translate(44,69)"/>
<path d="M0 0 C0.23074219 0.60328125 0.46148437 1.2065625 0.69921875 1.828125 C2.75635107 6.86931883 4.41715831 9.81747105 9 13 C9 13.66 9 14.32 9 15 C8.236875 14.835 7.47375 14.67 6.6875 14.5 C-1.79369902 13.35000691 -7.95049471 12.86470839 -15.0546875 18.19921875 C-17.92197294 20.85347294 -19.89701708 23.71408919 -22 27 C-22.33 27 -22.66 27 -23 27 C-22.86930156 18.89669659 -20.3674494 14.04479483 -15 8 C-12.46859609 5.75551939 -9.84222363 3.82890912 -7 2 C-4 0 -4 0 0 0 Z " fill="#F3F3F3" transform="translate(48,48)"/>
<path d="M0 0 C0.99 0 1.98 0 3 0 C3 0.99 3 1.98 3 3 C4.32 3 5.64 3 7 3 C7 3.66 7 4.32 7 5 C5.35 4.67 3.7 4.34 2 4 C2 4.66 2 5.32 2 6 C2.66 6.33 3.32 6.66 4 7 C4 7.99 4 8.98 4 10 C4.99 10.33 5.98 10.66 7 11 C6.67 13.31 6.34 15.62 6 18 C5.01 17.67 4.02 17.34 3 17 C3.33 15.35 3.66 13.7 4 12 C3.34 11.67 2.68 11.34 2 11 C2.33 10.34 2.66 9.68 3 9 C-0.11785113 9.64644661 -0.11785113 9.64644661 -1 12 C-0.34 12 0.32 12 1 12 C1 12.66 1 13.32 1 14 C1.66 14.33 2.32 14.66 3 15 C2.01 15.33 1.02 15.66 0 16 C0.33 16.99 0.66 17.98 1 19 C0.5625 21.1875 0.5625 21.1875 0 23 C1.98491642 22.73323796 1.98491642 22.73323796 4 22 C4.33 21.01 4.66 20.02 5 19 C7 21 7 21 7 24 C6.071875 24.12375 5.14375 24.2475 4.1875 24.375 C0.86074765 24.81533082 0.86074765 24.81533082 -2 27 C-2.33 26.01 -2.66 25.02 -3 24 C-2.67 23.34 -2.34 22.68 -2 22 C-1.77532169 20.46331135 -1.59203195 18.92031946 -1.4375 17.375 C-1.35371094 16.55773437 -1.26992187 15.74046875 -1.18359375 14.8984375 C-1.12300781 14.27195312 -1.06242187 13.64546875 -1 13 C-2.65 14.65 -4.3 16.3 -6 18 C-6.66 17.67 -7.32 17.34 -8 17 C-7.59007813 16.443125 -7.18015625 15.88625 -6.7578125 15.3125 C-3.16876468 10.22944663 -1.11387899 6.12633446 0 0 Z " fill="#C6C5C6" transform="translate(86,68)"/>
<path d="M0 0 C0.66 0 1.32 0 2 0 C0.94258427 2.90789327 -0.22860599 5.36576958 -1.875 8 C-7.61743489 17.97936251 -8.68873538 28.74778384 -9 40 C-11.6916463 37.3083537 -11.29897843 35.88399512 -11.3125 32.125 C-11.08864899 20.82052386 -8.33525085 8.33525085 0 0 Z " fill="#F3E3E4" transform="translate(29,38)"/>
<path d="M0 0 C0.33 0.66 0.66 1.32 1 2 C0.38125 2.28875 -0.2375 2.5775 -0.875 2.875 C-3.13325765 3.93720042 -3.13325765 3.93720042 -5 6 C-5.99 6 -6.98 6 -8 6 C-7.67 7.32 -7.34 8.64 -7 10 C-8.32 10.33 -9.64 10.66 -11 11 C-11 10.01 -11 9.02 -11 8 C-12.32 7.67 -13.64 7.34 -15 7 C-14.67 5.02 -14.34 3.04 -14 1 C-4.21321962 -1.57995736 -4.21321962 -1.57995736 0 0 Z " fill="#101011" transform="translate(108,73)"/>
<path d="M0 0 C0.99 0 1.98 0 3 0 C2.47731534 2.76276177 1.89130413 5.3260876 1 8 C2.98 8 4.96 8 7 8 C5.02 8.99 5.02 8.99 3 10 C3.07018127 13.40060156 3.23921271 16.67825267 4 20 C6.38987933 22.1386077 6.38987933 22.1386077 9 23 C9 23.33 9 23.66 9 24 C6.625 24.1875 6.625 24.1875 4 24 C3.34 23.01 2.68 22.02 2 21 C0.35 21.33 -1.3 21.66 -3 22 C-2.525625 21.13375 -2.05125 20.2675 -1.5625 19.375 C-0.06765105 16.14612626 0.58218313 13.50966174 1 10 C-0.65 10.66 -2.3 11.32 -4 12 C-3.79503906 11.46890625 -3.59007812 10.9378125 -3.37890625 10.390625 C-3.10949219 9.68421875 -2.84007812 8.9778125 -2.5625 8.25 C-2.29566406 7.55390625 -2.02882812 6.8578125 -1.75390625 6.140625 C-1.03853307 4.10940997 -0.48634348 2.0964709 0 0 Z " fill="#C8C8C8" transform="translate(51,71)"/>
<path d="M0 0 C21.53191489 -0.76595745 21.53191489 -0.76595745 32 4 C28.72079119 5.95881942 28.23826396 6.05559492 24.25 5.125 C23.1775 4.75375 22.105 4.3825 21 4 C21.99 4.99 22.98 5.98 24 7 C21.45383074 6.51035207 19.74857159 5.84914295 17.5 4.5 C13.15077796 2.6360477 9.30164336 2.50118685 4.609375 2.30859375 C2 2 2 2 0 0 Z " fill="#DED8D9" transform="translate(60,19)"/>
<path d="M0 0 C0.99 0.33 1.98 0.66 3 1 C3 3.31 3 5.62 3 8 C2.34 8 1.68 8 1 8 C1 8.99 1 9.98 1 11 C1.66 11 2.32 11 3 11 C3.33 9.02 3.66 7.04 4 5 C4.99 5.33 5.98 5.66 7 6 C6.649375 7.093125 6.29875 8.18625 5.9375 9.3125 C4.66960546 12.90920373 4.66960546 12.90920373 6 16 C3.03 16.33 0.06 16.66 -3 17 C-2.484375 16.4225 -1.96875 15.845 -1.4375 15.25 C0.26505193 13.12172477 0.26505193 13.12172477 -0.3125 10.75 C-0.539375 10.1725 -0.76625 9.595 -1 9 C-2.98 9.33 -4.96 9.66 -7 10 C-7 9.34 -7 8.68 -7 8 C-5.02 7.67 -3.04 7.34 -1 7 C-0.67 4.69 -0.34 2.38 0 0 Z " fill="#D3D3D3" transform="translate(61,29)"/>
<path d="M0 0 C0.33 0 0.66 0 1 0 C1.33 5.61 1.66 11.22 2 17 C2.66 14.03 3.32 11.06 4 8 C6.24959782 12.49919565 6.07922275 14.34439425 5.625 19.25 C5.51414062 20.51328125 5.40328125 21.7765625 5.2890625 23.078125 C5.14597656 24.52445313 5.14597656 24.52445313 5 26 C4.34 25.67 3.68 25.34 3 25 C3 24.01 3 23.02 3 22 C2.34 22 1.68 22 1 22 C0.67 22.66 0.34 23.32 0 24 C-1.28162626 15.88303369 -0.6976874 8.14684214 0 0 Z " fill="#C4B6B7" transform="translate(20,63)"/>
<path d="M0 0 C0.66 0 1.32 0 2 0 C2.42410156 0.9178125 2.84820313 1.835625 3.28515625 2.78125 C6.7329202 10.05733018 10.17155002 16.2955596 16 22 C15.34 22.66 14.68 23.32 14 24 C0 9.66448802 0 9.66448802 0 0 Z " fill="#EFE5E6" transform="translate(21,85)"/>
<path d="M0 0 C-0.66 2.31 -1.32 4.62 -2 7 C1.465 8.485 1.465 8.485 5 10 C5 10.33 5 10.66 5 11 C-1.625 11.25 -1.625 11.25 -5 9 C-7.15274948 9.30840599 -7.15274948 9.30840599 -9 10 C-8.34 8.68 -7.68 7.36 -7 6 C-7.66 5.01 -8.32 4.02 -9 3 C-6.525 3.99 -6.525 3.99 -4 5 C-4 4.01 -4 3.02 -4 2 C-5.32 1.67 -6.64 1.34 -8 1 C-3.375 -1.125 -3.375 -1.125 0 0 Z " fill="#DDDDDE" transform="translate(78,33)"/>
<path d="M0 0 C0.99 0.33 1.98 0.66 3 1 C1.95789846 7.56798206 0.81642709 14.40991289 -3 20 C-6.25 21.5625 -6.25 21.5625 -9 22 C-8.4225 21.401875 -7.845 20.80375 -7.25 20.1875 C-3.10081025 14.30948119 -0.77302566 7.15048737 0 0 Z " fill="#E7DCDD" transform="translate(118,76)"/>
<path d="M0 0 C-5.78447575 5.20602817 -13.14387069 9.37977927 -21 10 C-21 9.01 -21 8.02 -21 7 C-20.45472656 6.84144531 -19.90945312 6.68289062 -19.34765625 6.51953125 C-14.08901154 4.89249759 -9.61780332 2.80465153 -4.9453125 -0.109375 C-3 -1 -3 -1 0 0 Z " fill="#E6DBDB" transform="translate(101,111)"/>
<path d="M0 0 C0.99 0 1.98 0 3 0 C2.34 1.32 1.68 2.64 1 4 C2.32 4.66 3.64 5.32 5 6 C4.39816251 8.02045442 3.72693904 10.02111039 3 12 C2.01 12.495 2.01 12.495 1 13 C1.33 11.02 1.66 9.04 2 7 C0.35 7 -1.3 7 -3 7 C-3 7.66 -3 8.32 -3 9 C-2.01 9.33 -1.02 9.66 0 10 C-0.99 10 -1.98 10 -3 10 C-3.33 10.66 -3.66 11.32 -4 12 C-4.33 10.02 -4.66 8.04 -5 6 C-4.01 6 -3.02 6 -2 6 C-1.34 4.02 -0.68 2.04 0 0 Z " fill="#D8D7D8" transform="translate(44,69)"/>
<path d="M0 0 C0.66 0 1.32 0 2 0 C2 0.66 2 1.32 2 2 C2.99 2 3.98 2 5 2 C4.67 3.32 4.34 4.64 4 6 C2.35 6.33 0.7 6.66 -1 7 C-1 8.32 -1 9.64 -1 11 C-1.66 11 -2.32 11 -3 11 C-3.75 8.875 -3.75 8.875 -4 6 C-2.1875 2.6875 -2.1875 2.6875 0 0 Z " fill="#1E1E1F" transform="translate(36,84)"/>
<path d="M0 0 C0.845625 0.639375 1.69125 1.27875 2.5625 1.9375 C5.90728565 4.1966273 8.97396992 4.67791759 13 5 C12.67 3.68 12.34 2.36 12 1 C13.98 1.99 15.96 2.98 18 4 C18 4.66 18 5.32 18 6 C14.04563959 7.9771802 9.29921243 7.56992441 5 7 C1.8125 4.625 1.8125 4.625 0 2 C0 1.34 0 0.68 0 0 Z " fill="#E0E0E1" transform="translate(62,49)"/>
<path d="M0 0 C0.99 0.33 1.98 0.66 3 1 C3.22786458 3.01822917 3.45572917 5.03645833 3.68359375 7.0546875 C3.91292961 9.07404316 3.91292961 9.07404316 5 11 C4.67 11.99 4.34 12.98 4 14 C1.9375 14.6875 1.9375 14.6875 0 15 C0 12.69 0 10.38 0 8 C0.66 7.67 1.32 7.34 2 7 C1.67 6.01 1.34 5.02 1 4 C0.34 4 -0.32 4 -1 4 C-0.67 2.68 -0.34 1.36 0 0 Z " fill="#383738" transform="translate(86,76)"/>
<path d="M0 0 C7.59 0 15.18 0 23 0 C22 2 22 2 20.41015625 2.609375 C17.07295144 3.15025098 13.81726275 3.21035469 10.4375 3.25 C9.76525391 3.270625 9.09300781 3.29125 8.40039062 3.3125 C6.43359375 3.328125 6.43359375 3.328125 3 3 C2.01 2.01 1.02 1.02 0 0 Z " fill="#F8E5E6" transform="translate(58,119)"/>
<path d="M0 0 C2.625 0.375 2.625 0.375 5 1 C5 1.99 5 2.98 5 4 C4.01 4 3.02 4 2 4 C2 4.99 2 5.98 2 7 C1.01 8.485 1.01 8.485 0 10 C-1.32 9.34 -2.64 8.68 -4 8 C-2.25 2.25 -2.25 2.25 0 0 Z " fill="#1A191B" transform="translate(69,34)"/>
<path d="M0 0 C0.33 0.66 0.66 1.32 1 2 C-0.65 2.66 -2.3 3.32 -4 4 C-4 3.01 -4 2.02 -4 1 C-6.97 1.66 -9.94 2.32 -13 3 C-13 3.99 -13 4.98 -13 6 C-13.66 6 -14.32 6 -15 6 C-14.67 4.35 -14.34 2.7 -14 1 C-4.21321962 -1.57995736 -4.21321962 -1.57995736 0 0 Z " fill="#CBCBCB" transform="translate(108,73)"/>
<path d="M0 0 C2.0625 0.4375 2.0625 0.4375 4 1 C3.67 2.65 3.34 4.3 3 6 C1.02 6.33 -0.96 6.66 -3 7 C-3 9.31 -3 11.62 -3 14 C-3.33 14 -3.66 14 -4 14 C-4.33 10.04 -4.66 6.08 -5 2 C-4.01 2.33 -3.02 2.66 -2 3 C-2.33 3.99 -2.66 4.98 -3 6 C-1.68 5.67 -0.36 5.34 1 5 C1 4.01 1 3.02 1 2 C0.34 1.67 -0.32 1.34 -1 1 C-0.67 0.67 -0.34 0.34 0 0 Z " fill="#DBDBDB" transform="translate(100,78)"/>
<path d="M0 0 C0.66 0.33 1.32 0.66 2 1 C1.67 2.32 1.34 3.64 1 5 C2.98491642 4.73323796 2.98491642 4.73323796 5 4 C5.33 3.01 5.66 2.02 6 1 C8 3 8 3 8 6 C7.071875 6.12375 6.14375 6.2475 5.1875 6.375 C1.86074765 6.81533082 1.86074765 6.81533082 -1 9 C-2.25541557 5.23375329 -1.37061958 3.62811066 0 0 Z " fill="#DCDCDC" transform="translate(85,86)"/>
<path d="M0 0 C2.49055871 3.76435592 2.03090984 6.86617377 1.625 11.25 C1.51414062 12.51328125 1.40328125 13.7765625 1.2890625 15.078125 C1.19367187 16.04234375 1.09828125 17.0065625 1 18 C0.34 17.67 -0.32 17.34 -1 17 C-2.26323683 12.99373463 -1.82491045 9.7686383 -1.0625 5.6875 C-0.86785156 4.61886719 -0.67320313 3.55023438 -0.47265625 2.44921875 C-0.31667969 1.64097656 -0.16070313 0.83273438 0 0 Z " fill="#949394" transform="translate(24,71)"/>
<path d="M0 0 C0.99 0.33 1.98 0.66 3 1 C3 3.31 3 5.62 3 8 C-0.4019487 10.09350689 -3.05272412 10.17942163 -7 10 C-7 9.34 -7 8.68 -7 8 C-5.02 7.67 -3.04 7.34 -1 7 C-0.67 4.69 -0.34 2.38 0 0 Z " fill="#E0E0E0" transform="translate(61,29)"/>
<path d="M0 0 C0.66 0.66 1.32 1.32 2 2 C-3.38880042 5.84914316 -7.66009762 8.44071878 -14.375 7.625 C-16.169375 7.315625 -16.169375 7.315625 -18 7 C-18 6.67 -18 6.34 -18 6 C-16.80503906 5.85304688 -16.80503906 5.85304688 -15.5859375 5.703125 C-9.37295727 4.82635407 -4.86233769 4.05194808 0 0 Z " fill="#BAB9BA" transform="translate(108,98)"/>
<path d="M0 0 C0.66 0 1.32 0 2 0 C1.34 1.65 0.68 3.3 0 5 C1.32 4.67 2.64 4.34 4 4 C4 5.98 4 7.96 4 10 C3.01 9.34 2.02 8.68 1 8 C-0.65549531 7.61500109 -2.3222433 7.27206865 -4 7 C-4 5 -4 5 -2.5625 3.5 C-2.046875 3.005 -1.53125 2.51 -1 2 C-0.67 1.34 -0.34 0.68 0 0 Z " fill="#1B1A1C" transform="translate(48,77)"/>
<path d="M0 0 C0.33 0 0.66 0 1 0 C1.226875 0.928125 1.45375 1.85625 1.6875 2.8125 C3.21651233 6.52581566 4.4957781 7.24788905 8 9 C8 9.33 8 9.66 8 10 C5.625 10.1875 5.625 10.1875 3 10 C2.34 9.01 1.68 8.02 1 7 C-0.65 7.33 -2.3 7.66 -4 8 C-2.68 5.36 -1.36 2.72 0 0 Z " fill="#E7E7E7" transform="translate(52,85)"/>
<path d="M0 0 C1.65 0 3.3 0 5 0 C5.66 1.32 6.32 2.64 7 4 C6.01 5.32 5.02 6.64 4 8 C3.01 7.67 2.02 7.34 1 7 C1.20625 6.21625 1.4125 5.4325 1.625 4.625 C1.74875 3.75875 1.8725 2.8925 2 2 C1.34 1.34 0.68 0.68 0 0 Z " fill="#242325" transform="translate(44,86)"/>
<path d="M0 0 C1.98 0 3.96 0 6 0 C6.33 0.66 6.66 1.32 7 2 C6.0625 4.625 6.0625 4.625 5 7 C4.01 6.67 3.02 6.34 2 6 C2 5.01 2 4.02 2 3 C1.01 2.67 0.02 2.34 -1 2 C-0.67 1.34 -0.34 0.68 0 0 Z " fill="#1D1C1D" transform="translate(88,72)"/>
<path d="M0 0 C-1.07401108 2.91517292 -1.77810176 4.77810176 -4 7 C-4 5.35 -4 3.7 -4 2 C-5.32 1.67 -6.64 1.34 -8 1 C-3.375 -1.125 -3.375 -1.125 0 0 Z " fill="#D4D4D5" transform="translate(78,33)"/>
<path d="M0 0 C0.99 0.33 1.98 0.66 3 1 C1.02 3.31 -0.96 5.62 -3 8 C-3.66 7.67 -4.32 7.34 -5 7 C-3.70700306 4.11562221 -2.34058637 2.12780579 0 0 Z " fill="#E1CDCF" transform="translate(35,31)"/>
<path d="M0 0 C2.56616632 3.84924948 2.55097676 6.4349304 3 11 C2.67 10.34 2.34 9.68 2 9 C1.34 9 0.68 9 0 9 C-0.66 6.36 -1.32 3.72 -2 1 C-1.34 0.67 -0.68 0.34 0 0 Z " fill="#ECD3D4" transform="translate(118,53)"/>
<path d="M0 0 C1.66842534 0.32441604 3.33480481 0.65939189 5 1 C6.11375 1.185625 6.11375 1.185625 7.25 1.375 C8.11625 1.684375 8.11625 1.684375 9 2 C9.33 2.99 9.66 3.98 10 5 C2.25 3.125 2.25 3.125 0 2 C0 1.34 0 0.68 0 0 Z " fill="#E9D2D3" transform="translate(49,116)"/>
<path d="M0 0 C0.66 0 1.32 0 2 0 C4.09350689 3.4019487 4.17942163 6.05272412 4 10 C1.16625119 6.79663178 0.4794463 4.21912747 0 0 Z " fill="#F8EFF0" transform="translate(21,85)"/>
<path d="M0 0 C1.27351308 2.54702616 0.80191925 3.4282945 0.0625 6.125 C-0.13214844 6.84945312 -0.32679687 7.57390625 -0.52734375 8.3203125 C-0.68332031 8.87460938 -0.83929688 9.42890625 -1 10 C-1.66 10 -2.32 10 -3 10 C-3.75 7.8125 -3.75 7.8125 -4 5 C-2.0625 2.1875 -2.0625 2.1875 0 0 Z " fill="#C9C9CA" transform="translate(36,85)"/>
<path d="M0 0 C0.99 0.33 1.98 0.66 3 1 C2.67 3.31 2.34 5.62 2 8 C1.01 7.67 0.02 7.34 -1 7 C-0.67 5.35 -0.34 3.7 0 2 C-0.66 1.67 -1.32 1.34 -2 1 C-1.34 0.67 -0.68 0.34 0 0 Z " fill="#DFDEDE" transform="translate(90,78)"/>
<path d="M0 0 C0.8971875 0.309375 0.8971875 0.309375 1.8125 0.625 C0.69176138 1.46405565 -0.43424547 2.29607831 -1.5625 3.125 C-2.18898438 3.5890625 -2.81546875 4.053125 -3.4609375 4.53125 C-5.1875 5.625 -5.1875 5.625 -7.1875 5.625 C-5.69046729 2.17030914 -4.27938051 -0.73360809 0 0 Z " fill="#F1EAEB" transform="translate(44.1875,26.375)"/>
<path d="M0 0 C5.75 -0.125 5.75 -0.125 8 1 C8 1.99 8 2.98 8 4 C6.68 4.33 5.36 4.66 4 5 C4 4.01 4 3.02 4 2 C2.68 1.34 1.36 0.68 0 0 Z " fill="#3B393B" transform="translate(93,79)"/>
<path d="M0 0 C2.62187494 1.04874998 3.79371361 1.64931313 5.25 4.125 C5.4975 4.74375 5.745 5.3625 6 6 C5.34 6.66 4.68 7.32 4 8 C0 2.25 0 2.25 0 0 Z " fill="#E8DEDF" transform="translate(106,35)"/>
<path d="M0 0 C0.66 0 1.32 0 2 0 C1.1875 3.4375 1.1875 3.4375 0 7 C-0.99 7.33 -1.98 7.66 -3 8 C-3.33 7.01 -3.66 6.02 -4 5 C-3.01 5 -2.02 5 -1 5 C-0.67 3.35 -0.34 1.7 0 0 Z " fill="#E6E5E6" transform="translate(45,88)"/>
<path d="M0 0 C0.99 0 1.98 0 3 0 C3 0.66 3 1.32 3 2 C0.35541621 3.32229189 -1.67761301 3.09677194 -4.625 3.0625 C-5.62789063 3.05347656 -6.63078125 3.04445312 -7.6640625 3.03515625 C-8.43492188 3.02355469 -9.20578125 3.01195312 -10 3 C-10 2.67 -10 2.34 -10 2 C-9.04287109 1.90912109 -9.04287109 1.90912109 -8.06640625 1.81640625 C-6.82697266 1.69072266 -6.82697266 1.69072266 -5.5625 1.5625 C-4.73878906 1.48128906 -3.91507812 1.40007813 -3.06640625 1.31640625 C-1.01337975 1.21069185 -1.01337975 1.21069185 0 0 Z " fill="#B6B5B6" transform="translate(77,53)"/>
<path d="M0 0 C0.625 1.8125 0.625 1.8125 1 4 C0.01 5.485 0.01 5.485 -1 7 C-1.66 7 -2.32 7 -3 7 C-2.25 2.25 -2.25 2.25 0 0 Z " fill="#C2C1C2" transform="translate(59,47)"/>
<path d="M0 0 C-0.33 1.32 -0.66 2.64 -1 4 C-2.32 4 -3.64 4 -5 4 C-5 3.01 -5 2.02 -5 1 C-3 0 -3 0 0 0 Z " fill="#111012" transform="translate(102,88)"/>
</svg>
